<svg width="80" height="80" viewBox="0 0 80 80" fill="none" xmlns="http://www.w3.org/2000/svg">
<path d="M47.8142 29.9876L45.6179 29.6677L44.5124 31.0861C44.511 31.0896 44.5105 31.0933 44.5109 31.0969L44.5135 31.1223V31.1478C44.5135 31.3105 44.4498 31.4791 44.3607 31.5995C44.3171 31.6585 44.2138 31.7796 44.0355 31.8284C43.8861 31.8694 43.7483 31.8442 43.6367 31.7869L42.8304 31.5692L38.9193 36.5816L38.9002 36.6061L38.8782 36.628C38.6386 36.867 38.3521 36.864 38.2058 36.8624C38.195 36.8623 38.1849 36.8622 38.1757 36.8622H38.0643L37.9634 36.8149L36.4845 36.1211L35.7154 36.6143C35.7151 36.6145 35.7148 36.6147 35.7146 36.6148C35.5712 36.7072 35.4042 36.7563 35.2337 36.7563C35.0745 36.7563 34.9183 36.7135 34.7816 36.6326L34.5265 36.5069L34.287 37.6064L34.2844 37.6183L34.2843 37.6182C34.2767 37.6492 34.2787 37.6818 34.2901 37.7116C34.3002 37.7382 34.3173 37.7616 34.3398 37.7795L35.0198 38.1882L35.0255 38.1916L35.0255 38.1916L36.8526 39.3228L37.7213 39.8394C37.7216 39.8396 37.722 39.8398 37.7223 39.84C37.7526 39.8575 37.7879 39.865 37.823 39.8613C37.8585 39.8575 37.8916 39.8424 37.9175 39.8186L37.9245 39.8123L37.9245 39.8123L39.4061 38.5024L39.4451 38.468L39.4903 38.4423C39.7114 38.3167 39.967 38.2658 40.2192 38.2968L40.328 38.3102L40.4211 38.3678L40.7149 38.5495L41.4414 37.9028C41.5621 37.7864 41.7133 37.7064 41.8775 37.672M47.8142 29.9876L41.98 38.1614M47.8142 29.9876L46.6704 31.3416L46.6354 31.383L46.6101 31.4309C46.4895 31.6595 46.5011 31.9178 46.5761 32.1131C46.6452 32.2933 46.8291 32.5484 47.1587 32.5807L47.8142 29.9876ZM41.8775 37.672L41.98 38.1614M41.8775 37.672C41.8775 37.672 41.8775 37.672 41.8775 37.672L41.98 38.1614M41.8775 37.672C42.0476 37.6363 42.2244 37.6512 42.3862 37.7146L42.3999 37.72L42.4133 37.7262L43.5103 38.2328M41.98 38.1614C42.0548 38.1457 42.1326 38.1522 42.2037 38.1801L43.3401 38.7049M43.5103 38.2328C43.5053 38.2323 43.5003 38.2312 43.4955 38.2297L43.4709 38.305L43.4629 38.3155L43.4665 38.3182L43.3401 38.7049M43.5103 38.2328L43.5215 38.2379M43.5103 38.2328L43.5215 38.2379M43.3401 38.7049L43.5052 38.3474M43.3401 38.7049C43.4277 38.7336 43.521 38.7405 43.612 38.7251C43.7029 38.7098 43.7887 38.6726 43.862 38.6167M43.5052 38.3474L43.5544 38.3845L43.862 38.6167M43.5052 38.3474L43.5366 38.2793L43.5497 38.251L43.5303 38.242L43.5215 38.2379M43.5052 38.3474L43.862 38.6167M43.862 38.6167L43.559 38.219C43.5502 38.2257 43.5398 38.2303 43.5287 38.2321C43.5276 38.2323 43.5266 38.2325 43.5255 38.2326L43.5215 38.2379M47.9047 32.6113C47.9051 32.6198 47.9071 32.6322 47.9131 32.6487C47.9207 32.6694 47.9343 32.6927 47.9544 32.7138C47.9641 32.724 47.9753 32.7337 47.9881 32.7423C48.0238 32.7663 48.0514 32.7686 48.054 32.7688C48.0541 32.7688 48.0541 32.7688 48.0541 32.7688C48.0543 32.7688 48.0543 32.7688 48.0541 32.7688H47.9988L47.9448 32.7567L47.8067 32.7258L47.9054 32.5993C47.9054 32.5995 47.9054 32.5997 47.9053 32.5999M47.9047 32.6113L47.9681 32.6527L48.0541 32.7088L48.3192 32.8818L48.0541 32.6748L47.9767 32.6145L47.925 32.5742L47.9057 32.5989C47.9056 32.5992 47.9055 32.5996 47.9053 32.5999M47.9047 32.6113C47.9045 32.6061 47.9049 32.6023 47.9053 32.5999M47.9047 32.6113L47.9005 32.6085C47.9029 32.6048 47.9044 32.6019 47.9053 32.5999M34.4609 36.369L34.4079 36.3574L34.0636 36.2824L34.4743 36.4273L34.4768 36.4221L34.4804 36.4148L34.4609 36.369ZM34.4609 36.369L34.489 36.3751L34.4989 36.3772M34.4609 36.369L34.4804 36.4148L34.4888 36.3978L34.4989 36.3772M34.4989 36.3772L34.6739 36.0221L34.4989 36.3772ZM40.8046 38.6119L40.7611 38.697L40.6886 38.8389L40.579 39.0534L40.7071 38.8464L40.7837 38.7224L40.842 38.6281L40.8197 38.6143C40.82 38.6144 40.8203 38.6145 40.8205 38.6145C40.8201 38.6144 40.8197 38.6142 40.8192 38.614L40.8046 38.6119ZM34.4878 36.432L34.4881 36.4327L34.4884 36.4336L34.4885 36.4336L34.4886 36.4332L34.489 36.4324L34.4878 36.432Z" fill="white" stroke="black"/>
<path d="M36.0283 40.8945L36.0072 40.8379L38.1188 42.2141L38.0428 42.2248C37.9475 42.2224 37.8522 42.2368 37.7614 42.2675C37.6523 42.3043 37.5522 42.3639 37.4677 42.4422L36.4817 43.2728L35.7012 42.6912L36.0149 41.3642L36.0283 41.3074V41.2491V40.9846V40.8945Z" fill="white" stroke="black"/>
<mask id="path-3-inside-1_61385:227" fill="white">
<path d="M34.9306 43.5119C34.9158 43.4911 34.8962 43.4742 34.8735 43.4625C34.8508 43.4508 34.8257 43.4446 34.8001 43.4446C34.7746 43.4446 34.7494 43.4508 34.7267 43.4625C34.704 43.4742 34.6844 43.4911 34.6696 43.5119L33.7942 43.9318C33.7827 43.9317 33.7714 43.934 33.761 43.9385C33.7505 43.943 33.741 43.9496 33.7331 43.9578C33.7252 43.9661 33.7191 43.9758 33.7151 43.9865C33.7112 43.9972 33.7094 44.0085 33.71 44.0199L31.7865 48.7221H31.8749L32.2958 48.55V48.6339L30.8984 50.9011C30.8984 50.9892 30.8984 50.9892 30.9826 50.9892L35.8734 46.0225C35.9618 46.0225 35.9618 45.9344 35.9618 45.8462L36.0502 44.5405C36.0502 44.4523 36.0502 44.3684 35.9618 44.3684L34.9306 43.5119Z"/>
</mask>
<path d="M34.9306 43.5119C34.9158 43.4911 34.8962 43.4742 34.8735 43.4625C34.8508 43.4508 34.8257 43.4446 34.8001 43.4446C34.7746 43.4446 34.7494 43.4508 34.7267 43.4625C34.704 43.4742 34.6844 43.4911 34.6696 43.5119L33.7942 43.9318C33.7827 43.9317 33.7714 43.934 33.761 43.9385C33.7505 43.943 33.741 43.9496 33.7331 43.9578C33.7252 43.9661 33.7191 43.9758 33.7151 43.9865C33.7112 43.9972 33.7094 44.0085 33.71 44.0199L31.7865 48.7221H31.8749L32.2958 48.55V48.6339L30.8984 50.9011C30.8984 50.9892 30.8984 50.9892 30.9826 50.9892L35.8734 46.0225C35.9618 46.0225 35.9618 45.9344 35.9618 45.8462L36.0502 44.5405C36.0502 44.4523 36.0502 44.3684 35.9618 44.3684L34.9306 43.5119Z" fill="white"/>
<path d="M34.9306 43.5119L34.1155 44.0912L34.1912 44.1977L34.2917 44.2812L34.9306 43.5119ZM34.6696 43.5119L35.102 44.4136L35.335 44.3019L35.4847 44.0912L34.6696 43.5119ZM33.7942 43.9318L33.7929 44.9317L34.021 44.932L34.2266 44.8334L33.7942 43.9318ZM33.71 44.0199L34.6356 44.3985L34.7199 44.1923L34.7087 43.9698L33.71 44.0199ZM31.7865 48.7221L30.861 48.3435L30.297 49.7221H31.7865V48.7221ZM31.8749 48.7221V49.7221H32.0715L32.2534 49.6477L31.8749 48.7221ZM32.2958 48.55H33.2958V47.0606L31.9172 47.6244L32.2958 48.55ZM32.2958 48.6339L33.1471 49.1586L33.2958 48.9174V48.6339H32.2958ZM30.8984 50.9011L30.0471 50.3764L29.8984 50.6176V50.9011H30.8984ZM30.9826 50.9892V51.9892H31.4013L31.6951 51.6909L30.9826 50.9892ZM35.8734 46.0225V45.0225H35.4546L35.1608 45.3209L35.8734 46.0225ZM35.9618 45.8462L34.9641 45.7787L34.9618 45.8124V45.8462H35.9618ZM36.0502 44.5405L37.0479 44.608L37.0502 44.5743V44.5405H36.0502ZM35.9618 44.3684L35.3228 45.1376L35.6007 45.3684H35.9618V44.3684ZM35.7457 42.9326C35.6382 42.7814 35.4962 42.6584 35.3318 42.5736L34.4153 44.3513C34.2963 44.2899 34.1934 44.2009 34.1155 44.0912L35.7457 42.9326ZM35.3318 42.5736C35.1674 42.4889 34.9851 42.4446 34.8001 42.4446V44.4446C34.6662 44.4446 34.5343 44.4126 34.4153 44.3513L35.3318 42.5736ZM34.8001 42.4446C34.6151 42.4446 34.4328 42.4889 34.2684 42.5736L35.1849 44.3513C35.066 44.4126 34.934 44.4446 34.8001 44.4446V42.4446ZM34.2684 42.5736C34.104 42.6584 33.962 42.7814 33.8545 42.9326L35.4847 44.0912C35.4068 44.2009 35.3039 44.2899 35.1849 44.3513L34.2684 42.5736ZM34.2372 42.6102L33.3618 43.0301L34.2266 44.8334L35.102 44.4136L34.2372 42.6102ZM33.7954 42.9318C33.6489 42.9316 33.5036 42.9611 33.3684 43.0188L34.1535 44.8583C34.0393 44.907 33.9166 44.9319 33.7929 44.9317L33.7954 42.9318ZM33.3684 43.0188C33.2328 43.0766 33.1109 43.1614 33.0098 43.2672L34.4564 44.6484C34.371 44.7378 34.2681 44.8093 34.1535 44.8583L33.3684 43.0188ZM33.0098 43.2672C32.9087 43.3731 32.8296 43.499 32.778 43.6377L34.6523 44.3353C34.6087 44.4526 34.5417 44.559 34.4564 44.6484L33.0098 43.2672ZM32.778 43.6377C32.7264 43.7761 32.7039 43.9232 32.7113 44.07L34.7087 43.9698C34.715 44.0938 34.6959 44.2182 34.6523 44.3353L32.778 43.6377ZM32.7844 43.6413L30.861 48.3435L32.7121 49.1007L34.6356 44.3985L32.7844 43.6413ZM31.7865 49.7221H31.8749V47.7221H31.7865V49.7221ZM32.2534 49.6477L32.6743 49.4755L31.9172 47.6244L31.4964 47.7965L32.2534 49.6477ZM31.2958 48.55V48.6339H33.2958V48.55H31.2958ZM31.4445 48.1092L30.0471 50.3764L31.7497 51.4258L33.1471 49.1586L31.4445 48.1092ZM29.8984 50.9011C29.8984 50.9092 29.8984 50.9294 29.8988 50.9496C29.8992 50.9689 29.9002 51.0092 29.9053 51.0575C29.9124 51.1238 29.9431 51.4146 30.1856 51.6687C30.4373 51.9323 30.7379 51.9718 30.8184 51.9811C30.8703 51.9872 30.9135 51.9884 30.9335 51.9888C30.9544 51.9893 30.9753 51.9892 30.9826 51.9892V49.9892C30.936 49.9892 30.9898 49.9876 31.0495 49.9945C31.1064 50.0012 31.3911 50.0351 31.6323 50.2877C31.8643 50.5308 31.8898 50.8051 31.8942 50.8466C31.8998 50.8995 31.8984 50.9465 31.8984 50.9011H29.8984ZM31.6951 51.6909L36.5859 46.7242L35.1608 45.3209L30.2701 50.2876L31.6951 51.6909ZM35.8734 47.0225C36.0678 47.0225 36.3141 46.9707 36.5374 46.7975C36.7523 46.6308 36.8526 46.4237 36.8991 46.2844C36.9437 46.1512 36.9543 46.0353 36.9582 45.9777C36.9622 45.9176 36.9618 45.8611 36.9618 45.8462H34.9618C34.9618 45.8754 34.9614 45.8629 34.9626 45.8442C34.9637 45.828 34.9688 45.7506 35.0023 45.6504C35.0378 45.5443 35.1215 45.3647 35.3115 45.2173C35.51 45.0633 35.7231 45.0225 35.8734 45.0225V47.0225ZM36.9595 45.9137L37.0479 44.608L35.0524 44.473L34.9641 45.7787L36.9595 45.9137ZM37.0502 44.5405C37.0502 44.526 37.0506 44.4689 37.0465 44.4085C37.0425 44.3505 37.0315 44.2316 36.9844 44.0952C36.9344 43.9503 36.8288 43.7435 36.6099 43.5806C36.3866 43.4145 36.1457 43.3684 35.9618 43.3684V45.3684C35.822 45.3684 35.6143 45.3328 35.4159 45.1851C35.2218 45.0407 35.1327 44.8604 35.0938 44.7476C35.0578 44.6432 35.0523 44.5618 35.0511 44.5444C35.0497 44.5245 35.0502 44.5109 35.0502 44.5405H37.0502ZM36.6007 43.5991L35.5695 42.7426L34.2917 44.2812L35.3228 45.1376L36.6007 43.5991Z" fill="black" mask="url(#path-3-inside-1_61385:227)"/>
<path d="M31.3091 74.7459L31.3703 74.8311L30.7325 75.2612L30.7265 75.2652L30.7206 75.2694C30.5553 75.3879 30.3829 75.4962 30.2043 75.5937L30.2043 75.5936L30.197 75.5977C30.0722 75.6686 29.9426 75.7307 29.8093 75.7838L31.3091 74.7459ZM29.9218 78.6209L30.2882 79.292L30.2075 79.3329L29.3607 77.7519C29.4079 77.8053 29.4528 77.8608 29.4954 77.918L29.4954 77.918L29.4989 77.9226C29.5641 78.0082 29.6286 78.1039 29.6967 78.2129L29.9208 78.6192L29.9218 78.6209ZM29.749 76.8229L28.7313 76.5768L28.713 76.5425L28.7376 76.5255L29.7709 76.7748L32.904 77.5306L32.8914 77.5829L29.749 76.8229Z" fill="#FFCD1E" stroke="black"/>
<path d="M15.4221 66.2094C15.1959 66.1708 14.9756 66.199 14.778 66.294C14.9163 66.2118 15.0643 66.1709 15.2148 66.1678C15.3953 66.164 15.6067 66.2143 15.8338 66.3492C15.7021 66.2829 15.5645 66.2337 15.4221 66.2094ZM13.0621 68.9909C13.0114 68.8179 13.0201 68.6528 13.1319 68.4741C13.1004 68.5458 13.0782 68.6226 13.0671 68.7041C13.0477 68.8475 13.0658 68.9836 13.1043 69.1064C13.087 69.0666 13.073 69.0281 13.0621 68.9909ZM14.7951 66.9012C14.4963 67.2454 14.6562 67.6653 15.1276 68.0767L14.7951 66.9012Z" fill="white" stroke="black"/>
<path d="M11.0663 61.0139C10.9908 60.9729 10.9124 60.9381 10.8317 60.9099C10.9112 60.9362 10.9895 60.9706 11.0663 61.0139ZM11.8532 62.0429C11.8429 61.9994 11.8308 61.9565 11.8169 61.9142C11.8845 62.1003 11.9078 62.2835 11.8949 62.4603C11.8995 62.3203 11.8856 62.1799 11.8532 62.0429Z" fill="white" stroke="black"/>
<mask id="path-8-inside-2_61385:227" fill="white">
<path d="M8.94895 56.7536L4.43698 59.1257L3.98663 58.286L8.50701 55.9013L8.94895 56.7536Z"/>
</mask>
<path d="M8.94895 56.7536L4.43698 59.1257L3.98663 58.286L8.50701 55.9013L8.94895 56.7536Z" fill="white"/>
<path d="M8.94895 56.7536L9.41429 57.6387L10.2944 57.176L9.83669 56.2932L8.94895 56.7536ZM4.43698 59.1257L3.55573 59.5983L4.02448 60.4723L4.90232 60.0108L4.43698 59.1257ZM3.98663 58.286L3.52004 57.4015L2.62948 57.8713L3.10538 58.7586L3.98663 58.286ZM8.50701 55.9013L9.39476 55.441L8.93117 54.5469L8.04042 55.0168L8.50701 55.9013ZM8.4836 55.8684L3.97164 58.2405L4.90232 60.0108L9.41429 57.6387L8.4836 55.8684ZM5.31823 58.653L4.86789 57.8133L3.10538 58.7586L3.55573 59.5983L5.31823 58.653ZM4.45323 59.1705L8.97361 56.7858L8.04042 55.0168L3.52004 57.4015L4.45323 59.1705ZM7.61927 56.3616L8.0612 57.2139L9.83669 56.2932L9.39476 55.441L7.61927 56.3616Z" fill="black" mask="url(#path-8-inside-2_61385:227)"/>
<mask id="path-10-inside-3_61385:227" fill="white">
<path d="M5.17342 50.2587L6.09098 49.9438L7.07586 52.7861L2.24823 54.4655L1.93256 53.5545L5.83844 52.211L5.17342 50.2587Z"/>
</mask>
<path d="M5.17342 50.2587L6.09098 49.9438L7.07586 52.7861L2.24823 54.4655L1.93256 53.5545L5.83844 52.211L5.17342 50.2587Z" fill="white"/>
<path d="M5.17342 50.2587L4.84883 49.3129L3.90511 49.6367L4.22683 50.5812L5.17342 50.2587ZM6.09098 49.9438L7.03586 49.6164L6.70942 48.6744L5.76639 48.998L6.09098 49.9438ZM7.07586 52.7861L7.40441 53.7306L8.34776 53.4025L8.02074 52.4587L7.07586 52.7861ZM2.24823 54.4655L1.30334 54.7929L1.63113 55.7389L2.57678 55.41L2.24823 54.4655ZM1.93256 53.5545L1.6073 52.6088L0.659533 52.9348L0.987669 53.8818L1.93256 53.5545ZM5.83844 52.211L6.1637 53.1566L7.10651 52.8323L6.78502 51.8885L5.83844 52.211ZM5.49801 51.2046L6.41557 50.8897L5.76639 48.998L4.84883 49.3129L5.49801 51.2046ZM5.14609 50.2713L6.13098 53.1136L8.02074 52.4587L7.03586 49.6164L5.14609 50.2713ZM6.74731 51.8417L1.91967 53.521L2.57678 55.41L7.40441 53.7306L6.74731 51.8417ZM3.19311 54.1381L2.87744 53.2271L0.987669 53.8818L1.30334 54.7929L3.19311 54.1381ZM2.25782 54.5001L6.1637 53.1566L5.51318 51.2653L1.6073 52.6088L2.25782 54.5001ZM6.78502 51.8885L6.12001 49.9363L4.22683 50.5812L4.89185 52.5334L6.78502 51.8885Z" fill="black" mask="url(#path-10-inside-3_61385:227)"/>
<mask id="path-12-inside-4_61385:227" fill="white">
<path d="M2.19362 42.9537C3.59098 42.7606 4.84945 43.5625 5.08094 45.2376L5.31244 46.917L0.261726 47.6097L0.0344403 45.9303C-0.201259 44.209 0.800467 43.1426 2.19362 42.9537ZM2.3241 43.9067C2.11939 43.9251 1.92061 43.985 1.73997 44.0827C1.55934 44.1805 1.40066 44.3142 1.27371 44.4754C1.14677 44.6366 1.05424 44.8221 1.00181 45.0203C0.949373 45.2185 0.938147 45.4253 0.968822 45.6281L1.08667 46.5097L4.21811 46.0899L4.09605 45.2124C4.07113 45.009 4.005 44.8128 3.9017 44.6357C3.79839 44.4586 3.66006 44.3043 3.49511 44.1822C3.33017 44.0601 3.14204 43.9727 2.94218 43.9253C2.74232 43.878 2.53489 43.8716 2.33251 43.9067H2.3241Z"/>
</mask>
<path d="M2.19362 42.9537C3.59098 42.7606 4.84945 43.5625 5.08094 45.2376L5.31244 46.917L0.261726 47.6097L0.0344403 45.9303C-0.201259 44.209 0.800467 43.1426 2.19362 42.9537ZM2.3241 43.9067C2.11939 43.9251 1.92061 43.985 1.73997 44.0827C1.55934 44.1805 1.40066 44.3142 1.27371 44.4754C1.14677 44.6366 1.05424 44.8221 1.00181 45.0203C0.949373 45.2185 0.938147 45.4253 0.968822 45.6281L1.08667 46.5097L4.21811 46.0899L4.09605 45.2124C4.07113 45.009 4.005 44.8128 3.9017 44.6357C3.79839 44.4586 3.66006 44.3043 3.49511 44.1822C3.33017 44.0601 3.14204 43.9727 2.94218 43.9253C2.74232 43.878 2.53489 43.8716 2.33251 43.9067H2.3241Z" fill="white"/>
<path d="M2.19362 42.9537L2.328 43.9446L2.33053 43.9443L2.19362 42.9537ZM5.08094 45.2376L6.07157 45.1011L6.07152 45.1007L5.08094 45.2376ZM5.31244 46.917L5.44832 47.9077L6.43972 47.7717L6.30307 46.7804L5.31244 46.917ZM0.261726 47.6097L-0.729239 47.7438L-0.594882 48.7365L0.397609 48.6004L0.261726 47.6097ZM0.0344403 45.9303L1.02541 45.7962L1.0252 45.7947L0.0344403 45.9303ZM2.3241 43.9067V42.9067H2.27944L2.23496 42.9107L2.3241 43.9067ZM0.968822 45.6281L1.96001 45.4956L1.95886 45.487L1.95757 45.4784L0.968822 45.6281ZM1.08667 46.5097L0.0954871 46.6422L0.228029 47.6338L1.21955 47.5009L1.08667 46.5097ZM4.21811 46.0899L4.351 47.081L5.34704 46.9475L5.20858 45.9521L4.21811 46.0899ZM4.09605 45.2124L3.10348 45.3341L3.10447 45.3421L3.10559 45.3502L4.09605 45.2124ZM2.33251 43.9067V44.9067H2.41857L2.50337 44.892L2.33251 43.9067ZM2.33053 43.9443C2.80172 43.8792 3.19452 43.9867 3.4774 44.1972C3.75405 44.4032 4.00651 44.7678 4.09035 45.3745L6.07152 45.1007C5.92387 44.0323 5.43135 43.1584 4.67156 42.5929C3.918 42.032 2.98288 41.8351 2.05672 41.9631L2.33053 43.9443ZM4.09031 45.3742L4.3218 47.0535L6.30307 46.7804L6.07157 45.1011L4.09031 45.3742ZM5.17655 45.9262L0.125843 46.619L0.397609 48.6004L5.44832 47.9077L5.17655 45.9262ZM1.25269 47.4756L1.02541 45.7962L-0.956525 46.0645L-0.729239 47.7438L1.25269 47.4756ZM1.0252 45.7947C0.938125 45.1588 1.08719 44.744 1.29102 44.4833C1.50091 44.2148 1.84726 44.0098 2.328 43.9446L2.05924 41.9628C1.14683 42.0865 0.295737 42.5092 -0.284598 43.2515C-0.870994 44.0015 -1.10494 44.9806 -0.956315 46.066L1.0252 45.7947ZM2.23496 42.9107C1.89476 42.9412 1.56429 43.0407 1.26388 43.2034L2.21607 44.9621C2.27693 44.9292 2.34402 44.9089 2.41323 44.9028L2.23496 42.9107ZM1.26388 43.2034C0.963482 43.366 0.699403 43.5883 0.488017 43.8568L2.05941 45.094C2.10192 45.04 2.15519 44.9951 2.21607 44.9621L1.26388 43.2034ZM0.488017 43.8568C0.276628 44.1253 0.122446 44.4342 0.0350559 44.7646L1.96856 45.276C1.98604 45.2099 2.01691 45.148 2.05941 45.094L0.488017 43.8568ZM0.0350559 44.7646C-0.0523382 45.095 -0.0710581 45.4398 -0.0199216 45.7777L1.95757 45.4784C1.94735 45.4109 1.95108 45.3421 1.96856 45.276L0.0350559 44.7646ZM-0.0223623 45.7606L0.0954871 46.6422L2.07786 46.3772L1.96001 45.4956L-0.0223623 45.7606ZM1.21955 47.5009L4.351 47.081L4.08523 45.0988L0.953789 45.5186L1.21955 47.5009ZM5.20858 45.9521L5.08651 45.0746L3.10559 45.3502L3.22765 46.2277L5.20858 45.9521ZM5.08863 45.0908C5.04717 44.7525 4.9372 44.4263 4.76549 44.1319L3.03791 45.1396C3.07281 45.1994 3.09508 45.2656 3.10348 45.3341L5.08863 45.0908ZM4.76549 44.1319C4.59379 43.8375 4.36399 43.5812 4.09016 43.3785L2.90007 44.9859C2.95614 45.0274 3.00299 45.0797 3.03791 45.1396L4.76549 44.1319ZM4.09016 43.3785C3.81633 43.1757 3.50418 43.0308 3.17272 42.9522L2.71164 44.8984C2.7799 44.9145 2.844 44.9444 2.90007 44.9859L4.09016 43.3785ZM3.17272 42.9522C2.84124 42.8737 2.49726 42.8632 2.16165 42.9214L2.50337 44.892C2.57253 44.88 2.6434 44.8822 2.71164 44.8984L3.17272 42.9522ZM2.33251 42.9067H2.3241V44.9067H2.33251V42.9067Z" fill="black" mask="url(#path-12-inside-4_61385:227)"/>
<mask id="path-14-inside-5_61385:227" fill="white">
<path d="M0.737321 30.4046L1.69274 30.5935L1.43179 31.895L5.48499 32.7011L5.29558 33.6457L1.24238 32.8397L0.981433 34.137L0.0302124 33.948L0.737321 30.4046Z"/>
</mask>
<path d="M0.737321 30.4046L1.69274 30.5935L1.43179 31.895L5.48499 32.7011L5.29558 33.6457L1.24238 32.8397L0.981433 34.137L0.0302124 33.948L0.737321 30.4046Z" fill="white"/>
<path d="M0.737321 30.4046L0.931306 29.4236L-0.0479878 29.23L-0.243343 30.2089L0.737321 30.4046ZM1.69274 30.5935L2.67323 30.7901L2.87034 29.807L1.88673 29.6125L1.69274 30.5935ZM1.43179 31.895L0.451305 31.6984L0.25441 32.6805L1.23673 32.8758L1.43179 31.895ZM5.48499 32.7011L6.46547 32.8977L6.66238 31.9157L5.68004 31.7203L5.48499 32.7011ZM5.29558 33.6457L5.10052 34.6265L6.07978 34.8213L6.27607 33.8423L5.29558 33.6457ZM1.24238 32.8397L1.43744 31.8589L0.458791 31.6642L0.262021 32.6425L1.24238 32.8397ZM0.981433 34.137L0.786625 35.1178L1.76508 35.3121L1.9618 34.3342L0.981433 34.137ZM0.0302124 33.948L-0.950452 33.7523L-1.14633 34.7339L-0.164596 34.9289L0.0302124 33.948ZM0.543337 31.3856L1.49876 31.5745L1.88673 29.6125L0.931306 29.4236L0.543337 31.3856ZM0.712257 30.3969L0.451305 31.6984L2.41228 32.0916L2.67323 30.7901L0.712257 30.3969ZM1.23673 32.8758L5.28993 33.6819L5.68004 31.7203L1.62685 30.9142L1.23673 32.8758ZM4.5045 32.5045L4.3151 33.4492L6.27607 33.8423L6.46547 32.8977L4.5045 32.5045ZM5.49064 32.665L1.43744 31.8589L1.04733 33.8205L5.10052 34.6265L5.49064 32.665ZM0.262021 32.6425L0.00107021 33.9398L1.9618 34.3342L2.22275 33.0369L0.262021 32.6425ZM1.17624 33.1561L0.225021 32.9672L-0.164596 34.9289L0.786625 35.1178L1.17624 33.1561ZM1.01088 34.1437L1.71799 30.6003L-0.243343 30.2089L-0.950452 33.7523L1.01088 34.1437Z" fill="black" mask="url(#path-14-inside-5_61385:227)"/>
<mask id="path-16-inside-6_61385:227" fill="white">
<path d="M3.52353 22.684L8.2291 24.653L7.85452 25.5431L5.94787 24.7454L5.10609 26.7438L7.01273 27.5415L6.63813 28.4274L1.93256 26.4583L2.30714 25.5683L4.20959 26.366L5.05137 24.3675L3.14893 23.5698L3.52353 22.684Z"/>
</mask>
<path d="M3.52353 22.684L8.2291 24.653L7.85452 25.5431L5.94787 24.7454L5.10609 26.7438L7.01273 27.5415L6.63813 28.4274L1.93256 26.4583L2.30714 25.5683L4.20959 26.366L5.05137 24.3675L3.14893 23.5698L3.52353 22.684Z" fill="white"/>
<path d="M3.52353 22.684L3.90954 21.7615L2.99051 21.3769L2.60249 22.2945L3.52353 22.684ZM8.2291 24.653L9.1508 25.0409L9.5395 24.1173L8.61512 23.7305L8.2291 24.653ZM7.85452 25.5431L7.46856 26.4656L8.38913 26.8507L8.77621 25.931L7.85452 25.5431ZM5.94787 24.7454L6.33383 23.8229L5.41355 23.4378L5.02629 24.3572L5.94787 24.7454ZM5.10609 26.7438L4.18451 26.3556L3.79538 27.2794L4.72013 27.6663L5.10609 26.7438ZM7.01273 27.5415L7.93377 27.931L8.32473 27.0064L7.39869 26.619L7.01273 27.5415ZM6.63813 28.4274L6.25212 29.3499L7.17115 29.7344L7.55917 28.8168L6.63813 28.4274ZM1.93256 26.4583L1.01086 26.0704L0.622155 26.994L1.54654 27.3808L1.93256 26.4583ZM2.30714 25.5683L2.69383 24.6461L1.77284 24.2599L1.38544 25.1804L2.30714 25.5683ZM4.20959 26.366L3.8229 27.2882L4.74361 27.6742L5.13116 26.7542L4.20959 26.366ZM5.05137 24.3675L5.97295 24.7557L6.36178 23.8326L5.43805 23.4453L5.05137 24.3675ZM3.14893 23.5698L2.22789 23.1804L1.83723 24.1042L2.76225 24.4921L3.14893 23.5698ZM3.13751 23.6065L7.84309 25.5755L8.61512 23.7305L3.90954 21.7615L3.13751 23.6065ZM7.3074 24.2651L6.93282 25.1552L8.77621 25.931L9.1508 25.0409L7.3074 24.2651ZM8.24047 24.6206L6.33383 23.8229L5.56192 25.6679L7.46856 26.4656L8.24047 24.6206ZM5.02629 24.3572L4.18451 26.3556L6.02767 27.132L6.86945 25.1336L5.02629 24.3572ZM4.72013 27.6663L6.62677 28.464L7.39869 26.619L5.49205 25.8213L4.72013 27.6663ZM6.09169 27.152L5.71709 28.0379L7.55917 28.8168L7.93377 27.931L6.09169 27.152ZM7.02415 27.5049L2.31857 25.5358L1.54654 27.3808L6.25212 29.3499L7.02415 27.5049ZM2.85426 26.8462L3.22884 25.9562L1.38544 25.1804L1.01086 26.0704L2.85426 26.8462ZM1.92046 26.4905L3.8229 27.2882L4.59627 25.4437L2.69383 24.6461L1.92046 26.4905ZM5.13116 26.7542L5.97295 24.7557L4.12979 23.9793L3.28801 25.9778L5.13116 26.7542ZM5.43805 23.4453L3.53561 22.6476L2.76225 24.4921L4.66469 25.2898L5.43805 23.4453ZM4.06996 23.9593L4.44457 23.0735L2.60249 22.2945L2.22789 23.1804L4.06996 23.9593Z" fill="black" mask="url(#path-16-inside-6_61385:227)"/>
<mask id="path-18-inside-7_61385:227" fill="white">
<path d="M7.00019 18.6492L7.90511 19.2622L8.91946 17.7675L9.72336 18.3091L8.70901 19.8037L9.61393 20.4167L10.8345 18.624L11.6384 19.1656L9.87488 21.756L5.66595 18.9011L7.42528 16.3107L8.22919 16.8565L7.00019 18.6492Z"/>
</mask>
<path d="M7.00019 18.6492L7.90511 19.2622L8.91946 17.7675L9.72336 18.3091L8.70901 19.8037L9.61393 20.4167L10.8345 18.624L11.6384 19.1656L9.87488 21.756L5.66595 18.9011L7.42528 16.3107L8.22919 16.8565L7.00019 18.6492Z" fill="white"/>
<path d="M7.00019 18.6492L6.1754 18.0838L5.60679 18.9132L6.43937 19.4771L7.00019 18.6492ZM7.90511 19.2622L7.34429 20.0901L8.17149 20.6504L8.73254 19.8237L7.90511 19.2622ZM8.91946 17.7675L9.47819 16.9382L8.65166 16.3814L8.09202 17.206L8.91946 17.7675ZM9.72336 18.3091L10.5508 18.8707L11.1143 18.0404L10.2821 17.4798L9.72336 18.3091ZM8.70901 19.8037L7.88157 19.2422L7.31952 20.0704L8.14819 20.6317L8.70901 19.8037ZM9.61393 20.4167L9.05311 21.2446L9.87907 21.8041L10.4405 20.9795L9.61393 20.4167ZM10.8345 18.624L11.3932 17.7947L10.568 17.2387L10.0079 18.0612L10.8345 18.624ZM11.6384 19.1656L12.465 19.7284L13.0305 18.8977L12.1972 18.3362L11.6384 19.1656ZM9.87488 21.756L9.31353 22.5836L10.1397 23.144L10.7015 22.3188L9.87488 21.756ZM5.66595 18.9011L4.83871 18.3393L4.27653 19.167L5.10461 19.7287L5.66595 18.9011ZM7.42528 16.3107L7.98698 15.4834L7.15978 14.9218L6.59804 15.7489L7.42528 16.3107ZM8.22919 16.8565L9.05398 17.4219L9.62198 16.5934L8.79089 16.0291L8.22919 16.8565ZM6.43937 19.4771L7.34429 20.0901L8.46592 18.4342L7.56101 17.8213L6.43937 19.4771ZM8.73254 19.8237L9.7469 18.3291L8.09202 17.206L7.07767 18.7006L8.73254 19.8237ZM8.36073 18.5969L9.16463 19.1385L10.2821 17.4798L9.47819 16.9382L8.36073 18.5969ZM8.89593 17.7476L7.88157 19.2422L9.53645 20.3653L10.5508 18.8707L8.89593 17.7476ZM8.14819 20.6317L9.05311 21.2446L10.1747 19.5888L9.26983 18.9758L8.14819 20.6317ZM10.4405 20.9795L11.6611 19.1868L10.0079 18.0612L8.78733 19.8539L10.4405 20.9795ZM10.2758 19.4534L11.0797 19.9949L12.1972 18.3362L11.3932 17.7947L10.2758 19.4534ZM10.8118 18.6028L9.04826 21.1932L10.7015 22.3188L12.465 19.7284L10.8118 18.6028ZM10.4362 20.9284L6.2273 18.0735L5.10461 19.7287L9.31353 22.5836L10.4362 20.9284ZM6.4932 19.4629L8.25253 16.8725L6.59804 15.7489L4.83871 18.3393L6.4932 19.4629ZM6.86358 17.138L7.66749 17.6838L8.79089 16.0291L7.98698 15.4834L6.86358 17.138ZM7.4044 16.291L6.1754 18.0838L7.82498 19.2146L9.05398 17.4219L7.4044 16.291Z" fill="black" mask="url(#path-18-inside-7_61385:227)"/>
<mask id="path-20-inside-8_61385:227" fill="white">
<path d="M17.1733 13.3046L14.0503 9.27841L16.5336 7.36395L17.127 8.12806L15.4098 9.45474L16.0832 10.3196L17.5142 9.21123L18.1119 9.97954L16.6724 11.0921L17.9351 12.7211L17.1733 13.3046Z"/>
</mask>
<path d="M17.1733 13.3046L14.0503 9.27841L16.5336 7.36395L17.127 8.12806L15.4098 9.45474L16.0832 10.3196L17.5142 9.21123L18.1119 9.97954L16.6724 11.0921L17.9351 12.7211L17.1733 13.3046Z" fill="white"/>
<path d="M17.1733 13.3046L16.3831 13.9175L16.9924 14.7029L17.7814 14.0985L17.1733 13.3046ZM14.0503 9.27841L13.4397 8.48644L12.6454 9.09881L13.2601 9.89131L14.0503 9.27841ZM16.5336 7.36395L17.3233 6.75056L16.7121 5.96361L15.923 6.57198L16.5336 7.36395ZM17.127 8.12806L17.7384 8.9194L18.5318 8.30646L17.9168 7.51466L17.127 8.12806ZM15.4098 9.45474L14.7984 8.66339L14.004 9.27709L14.6207 10.0691L15.4098 9.45474ZM16.0832 10.3196L15.2942 10.934L15.907 11.721L16.6955 11.1102L16.0832 10.3196ZM17.5142 9.21123L18.3035 8.59723L17.6908 7.80959L16.9019 8.42064L17.5142 9.21123ZM18.1119 9.97954L18.7234 10.7708L19.5171 10.1573L18.9012 9.36553L18.1119 9.97954ZM16.6724 11.0921L16.0609 10.3009L15.2686 10.9133L15.8821 11.7047L16.6724 11.0921ZM17.9351 12.7211L18.5432 13.5149L19.3416 12.9033L18.7255 12.1084L17.9351 12.7211ZM17.9635 12.6917L14.8405 8.66551L13.2601 9.89131L16.3831 13.9175L17.9635 12.6917ZM14.6609 10.0704L17.1441 8.15592L15.923 6.57198L13.4397 8.48644L14.6609 10.0704ZM15.7438 7.97735L16.3372 8.74145L17.9168 7.51466L17.3233 6.75056L15.7438 7.97735ZM16.5156 7.33671L14.7984 8.66339L16.0211 10.2461L17.7384 8.9194L16.5156 7.33671ZM14.6207 10.0691L15.2942 10.934L16.8722 9.70524L16.1988 8.84037L14.6207 10.0691ZM16.6955 11.1102L18.1266 10.0018L16.9019 8.42064L15.4709 9.52901L16.6955 11.1102ZM16.7249 9.82524L17.3226 10.5935L18.9012 9.36553L18.3035 8.59723L16.7249 9.82524ZM17.5004 9.18832L16.0609 10.3009L17.284 11.8833L18.7234 10.7708L17.5004 9.18832ZM15.8821 11.7047L17.1448 13.3337L18.7255 12.1084L17.4628 10.4795L15.8821 11.7047ZM17.327 11.9272L16.5652 12.5108L17.7814 14.0985L18.5432 13.5149L17.327 11.9272Z" fill="black" mask="url(#path-20-inside-8_61385:227)"/>
<path d="M23.8289 8.42045L23.6023 7.97475L23.8289 8.42045C24.0153 8.32568 24.1813 8.19518 24.3173 8.03632L23.9374 7.71118L24.3173 8.03632C24.4532 7.87746 24.5566 7.69338 24.6213 7.49456C24.6627 7.36747 24.6877 7.23596 24.6962 7.10317C24.7056 7.26803 24.6915 7.42241 24.6565 7.56361C24.565 7.93211 24.319 8.26416 23.8592 8.49601C23.4005 8.72727 22.9861 8.72691 22.6337 8.57939C22.5032 8.52475 22.3745 8.44696 22.251 8.34559C22.364 8.41729 22.4859 8.47462 22.6138 8.51605C22.8127 8.58049 23.0224 8.60521 23.2309 8.58881C23.4393 8.57242 23.6425 8.51522 23.8289 8.42045Z" fill="white" stroke="black"/>
<mask id="path-23-inside-9_61385:227" fill="white">
<path d="M30.8144 0.990875L31.0711 1.92291L29.8084 2.27558L30.9069 6.25144L29.9726 6.50334L28.8782 2.53168L27.6156 2.88434L27.3546 1.94811L30.8144 0.990875Z"/>
</mask>
<path d="M30.8144 0.990875L31.0711 1.92291L29.8084 2.27558L30.9069 6.25144L29.9726 6.50334L28.8782 2.53168L27.6156 2.88434L27.3546 1.94811L30.8144 0.990875Z" fill="white"/>
<path d="M30.8144 0.990875L31.7784 0.725308L31.5126 -0.239877L30.5477 0.0270843L30.8144 0.990875ZM31.0711 1.92291L31.3401 2.88605L32.2998 2.61801L32.0352 1.65735L31.0711 1.92291ZM29.8084 2.27558L29.5394 1.31244L28.5789 1.58069L28.8445 2.5419L29.8084 2.27558ZM30.9069 6.25144L31.1672 7.21697L32.1388 6.95504L31.8708 5.98512L30.9069 6.25144ZM29.9726 6.50334L29.0085 6.76898L29.2727 7.72773L30.2329 7.46887L29.9726 6.50334ZM28.8782 2.53168L29.8423 2.26605L29.5758 1.2986L28.6092 1.56854L28.8782 2.53168ZM27.6156 2.88434L26.6523 3.15283L26.9209 4.11663L27.8846 3.84748L27.6156 2.88434ZM27.3546 1.94811L27.088 0.984315L26.1223 1.25148L26.3913 2.2166L27.3546 1.94811ZM29.8503 1.25644L30.107 2.18848L32.0352 1.65735L31.7784 0.725308L29.8503 1.25644ZM30.8021 0.959776L29.5394 1.31244L30.0774 3.23872L31.3401 2.88605L30.8021 0.959776ZM28.8445 2.5419L29.9431 6.51776L31.8708 5.98512L30.7723 2.00926L28.8445 2.5419ZM30.6466 5.28591L29.7123 5.53781L30.2329 7.46887L31.1672 7.21697L30.6466 5.28591ZM30.9366 6.23771L29.8423 2.26605L27.9142 2.79731L29.0085 6.76898L30.9366 6.23771ZM28.6092 1.56854L27.3466 1.9212L27.8846 3.84748L29.1472 3.49482L28.6092 1.56854ZM28.5788 2.61585L28.3179 1.67962L26.3913 2.2166L26.6523 3.15283L28.5788 2.61585ZM27.6213 2.9119L31.081 1.95467L30.5477 0.0270843L27.088 0.984315L27.6213 2.9119Z" fill="black" mask="url(#path-23-inside-9_61385:227)"/>
<mask id="path-25-inside-10_61385:227" fill="white">
<path d="M38.8619 0L39.0724 2.90108C39.1692 4.23616 38.4831 5.24797 37.191 5.34033C35.8989 5.4327 35.0865 4.53005 34.9813 3.19076L34.7709 0.293885L35.7347 0.222513L35.9494 3.24534C35.9421 3.39945 35.9676 3.55335 36.0243 3.69689C36.081 3.84044 36.1675 3.97037 36.2782 4.07811C36.3889 4.18586 36.5213 4.26897 36.6665 4.32198C36.8118 4.37498 36.9666 4.39667 37.1209 4.38562C37.2752 4.37456 37.4253 4.33101 37.5615 4.25784C37.6977 4.18467 37.8167 4.08353 37.9108 3.96111C38.005 3.83869 38.072 3.69775 38.1075 3.5476C38.1431 3.39745 38.1463 3.24149 38.117 3.09L37.8981 0.0671739L38.8619 0Z"/>
</mask>
<path d="M38.8619 0L39.0724 2.90108C39.1692 4.23616 38.4831 5.24797 37.191 5.34033C35.8989 5.4327 35.0865 4.53005 34.9813 3.19076L34.7709 0.293885L35.7347 0.222513L35.9494 3.24534C35.9421 3.39945 35.9676 3.55335 36.0243 3.69689C36.081 3.84044 36.1675 3.97037 36.2782 4.07811C36.3889 4.18586 36.5213 4.26897 36.6665 4.32198C36.8118 4.37498 36.9666 4.39667 37.1209 4.38562C37.2752 4.37456 37.4253 4.33101 37.5615 4.25784C37.6977 4.18467 37.8167 4.08353 37.9108 3.96111C38.005 3.83869 38.072 3.69775 38.1075 3.5476C38.1431 3.39745 38.1463 3.24149 38.117 3.09L37.8981 0.0671739L38.8619 0Z" fill="white"/>
<path d="M38.8619 0L39.8593 -0.0723507L39.7872 -1.06691L38.7924 -0.99758L38.8619 0ZM39.0724 2.90108L40.0698 2.82876L40.0698 2.82872L39.0724 2.90108ZM34.9813 3.19076L33.9839 3.26322L33.9844 3.26909L34.9813 3.19076ZM34.7709 0.293885L34.697 -0.703385L33.7011 -0.629641L33.7735 0.36634L34.7709 0.293885ZM35.7347 0.222513L36.7322 0.151679L36.6612 -0.848826L35.6609 -0.774756L35.7347 0.222513ZM35.9494 3.24534L36.9483 3.29264L36.9511 3.23353L36.9469 3.17451L35.9494 3.24534ZM38.117 3.09L37.1196 3.16222L37.1239 3.22155L37.1352 3.27995L38.117 3.09ZM37.8981 0.0671739L37.8286 -0.930406L36.8283 -0.860693L36.9007 0.139391L37.8981 0.0671739ZM37.8646 0.0723507L38.075 2.97343L40.0698 2.82872L39.8593 -0.0723507L37.8646 0.0723507ZM38.075 2.97339C38.1103 3.45996 37.9966 3.7931 37.8502 3.98983C37.7174 4.16832 37.5003 4.31567 37.1197 4.34288L37.2623 6.33779C38.1738 6.27263 38.9458 5.86789 39.4549 5.18362C39.9504 4.51758 40.1313 3.67727 40.0698 2.82876L38.075 2.97339ZM37.1197 4.34288C36.7395 4.37006 36.507 4.25573 36.3517 4.09883C36.1788 3.92426 36.0171 3.60746 35.9782 3.11244L33.9844 3.26909C34.0507 4.11335 34.3478 4.91751 34.9305 5.506C35.5306 6.11215 36.3504 6.40297 37.2623 6.33779L37.1197 4.34288ZM35.9787 3.11831L35.7682 0.22143L33.7735 0.36634L33.9839 3.26322L35.9787 3.11831ZM34.8447 1.29115L35.8086 1.21978L35.6609 -0.774756L34.697 -0.703385L34.8447 1.29115ZM34.7372 0.293348L34.9519 3.31618L36.9469 3.17451L36.7322 0.151679L34.7372 0.293348ZM34.9505 3.19804C34.9365 3.49366 34.9855 3.78887 35.0942 4.06418L36.9544 3.32961C36.9497 3.31783 36.9477 3.30524 36.9483 3.29264L34.9505 3.19804ZM35.0942 4.06418C35.2029 4.33943 35.3688 4.58839 35.5807 4.79471L36.9757 3.36151C36.9663 3.35234 36.9591 3.34144 36.9544 3.32961L35.0942 4.06418ZM35.5807 4.79471C35.7927 5.00103 36.046 5.16003 36.3237 5.26138L37.0093 3.38257C36.9966 3.37791 36.9851 3.37068 36.9757 3.36151L35.5807 4.79471ZM36.3237 5.26138C36.6015 5.36274 36.8975 5.40419 37.1924 5.38306L37.0494 3.38817C37.0358 3.38915 37.0221 3.38722 37.0093 3.38257L36.3237 5.26138ZM37.1924 5.38306C37.4872 5.36193 37.7744 5.27868 38.0349 5.13871L37.0881 3.37697C37.0763 3.38334 37.0631 3.38719 37.0494 3.38817L37.1924 5.38306ZM38.0349 5.13871C38.2954 4.99872 38.5233 4.80514 38.7036 4.57061L37.1181 3.35161C37.1101 3.36193 37.1 3.37061 37.0881 3.37697L38.0349 5.13871ZM38.7036 4.57061C38.8839 4.33607 39.0125 4.0659 39.0807 3.77786L37.1344 3.31734C37.1315 3.3296 37.126 3.3413 37.1181 3.35161L38.7036 4.57061ZM39.0807 3.77786C39.1488 3.48985 39.155 3.19066 39.0988 2.90006L37.1352 3.27995C37.1376 3.29232 37.1373 3.30504 37.1344 3.31734L39.0807 3.77786ZM39.1144 3.01779L38.8955 -0.00504344L36.9007 0.139391L37.1196 3.16222L39.1144 3.01779ZM37.9676 1.06475L38.9315 0.99758L38.7924 -0.99758L37.8286 -0.930406L37.9676 1.06475Z" fill="black" mask="url(#path-25-inside-10_61385:227)"/>
<path d="M45.0102 3.29983L44.6087 3.3757L44.5567 3.27134L44.6387 3.28175C44.7611 3.30585 44.8863 3.3119 45.0102 3.29983Z" fill="white" stroke="black"/>
<mask id="path-28-inside-11_61385:227" fill="white">
<path d="M51.4928 2.7961L51.1519 3.8331L52.8692 4.39988L52.5661 5.31932L50.8489 4.75254L50.508 5.78954L52.5703 6.46967L52.2799 7.38912L49.3042 6.4067L50.8994 1.57437L53.8793 2.55259L53.5763 3.47623L51.4928 2.7961Z"/>
</mask>
<path d="M51.4928 2.7961L51.1519 3.8331L52.8692 4.39988L52.5661 5.31932L50.8489 4.75254L50.508 5.78954L52.5703 6.46967L52.2799 7.38912L49.3042 6.4067L50.8994 1.57437L53.8793 2.55259L53.5763 3.47623L51.4928 2.7961Z" fill="white"/>
<path d="M51.4928 2.7961L51.8032 1.84547L50.8545 1.53578L50.5429 2.48378L51.4928 2.7961ZM51.1519 3.8331L50.2019 3.52078L49.89 4.46965L50.8385 4.78271L51.1519 3.8331ZM52.8692 4.39988L53.8189 4.7129L54.1318 3.76356L53.1826 3.45026L52.8692 4.39988ZM52.5661 5.31932L52.2527 6.26893L53.2027 6.58249L53.5159 5.63235L52.5661 5.31932ZM50.8489 4.75254L51.1623 3.80293L50.2116 3.48914L49.8989 4.44023L50.8489 4.75254ZM50.508 5.78954L49.558 5.47723L49.246 6.42633L50.1948 6.73923L50.508 5.78954ZM52.5703 6.46967L53.5239 6.77087L53.8213 5.82925L52.8835 5.51998L52.5703 6.46967ZM52.2799 7.38912L51.9664 8.33871L52.9284 8.65629L53.2335 7.69031L52.2799 7.38912ZM49.3042 6.4067L48.3546 6.09323L48.0411 7.04279L48.9907 7.35628L49.3042 6.4067ZM50.8994 1.57437L51.2113 0.624255L50.2627 0.312875L49.9498 1.2609L50.8994 1.57437ZM53.8793 2.55259L54.8295 2.86434L55.1412 1.91432L54.1912 1.60248L53.8793 2.55259ZM53.5763 3.47623L53.2659 4.42686L54.2151 4.73674L54.5264 3.78798L53.5763 3.47623ZM50.5429 2.48378L50.2019 3.52078L52.1019 4.14541L52.4428 3.10841L50.5429 2.48378ZM50.8385 4.78271L52.5557 5.34949L53.1826 3.45026L51.4653 2.88348L50.8385 4.78271ZM51.9194 4.08685L51.6164 5.00629L53.5159 5.63235L53.8189 4.7129L51.9194 4.08685ZM52.8795 4.36971L51.1623 3.80293L50.5355 5.70215L52.2527 6.26893L52.8795 4.36971ZM49.8989 4.44023L49.558 5.47723L51.4579 6.10185L51.7989 5.06485L49.8989 4.44023ZM50.1948 6.73923L52.2571 7.41936L52.8835 5.51998L50.8211 4.83985L50.1948 6.73923ZM51.6168 6.16848L51.3263 7.08792L53.2335 7.69031L53.5239 6.77087L51.6168 6.16848ZM52.5934 6.43953L49.6177 5.45711L48.9907 7.35628L51.9664 8.33871L52.5934 6.43953ZM50.2538 6.72017L51.849 1.88784L49.9498 1.2609L48.3546 6.09323L50.2538 6.72017ZM50.5875 2.52449L53.5674 3.50271L54.1912 1.60248L51.2113 0.624255L50.5875 2.52449ZM52.9291 2.24085L52.6261 3.16449L54.5264 3.78798L54.8295 2.86434L52.9291 2.24085ZM53.8866 2.52561L51.8032 1.84547L51.1825 3.74672L53.2659 4.42686L53.8866 2.52561Z" fill="black" mask="url(#path-28-inside-11_61385:227)"/>
<path d="M61.6599 11.8891L61.6379 11.7789L62.3949 11.648L62.3949 11.648L62.399 11.6473C62.6224 11.6068 62.8274 11.5763 63.0145 11.5614L63.0145 11.5614L63.016 11.5612C63.1704 11.5485 63.3256 11.5469 63.4802 11.5566L61.6599 11.8891ZM64.5045 8.90865L64.4474 8.16575L64.5671 8.16083L64.6938 10.0272C64.6586 9.92997 64.6302 9.8304 64.6087 9.72921L64.6088 9.72919L64.6065 9.71936C64.581 9.60992 64.5628 9.49894 64.552 9.38713C64.5502 9.29159 64.5389 9.199 64.5298 9.12758C64.5278 9.11218 64.5259 9.09752 64.5241 9.08344C64.5156 9.01779 64.5087 8.96481 64.5045 8.90947L64.5045 8.90865ZM63.9269 10.6184L64.7789 11.2789L64.7816 11.3189L64.7409 11.3263L63.8914 10.6678L61.3395 8.68957L61.3766 8.64148L63.9269 10.6184Z" fill="#FFCD1E" stroke="black"/>
<path d="M73.7134 24.8603L73.4422 24.569L73.5013 24.4716L73.538 24.5477C73.5815 24.6598 73.6406 24.765 73.7134 24.8603Z" fill="white" stroke="black"/>
<path d="M77.3775 29.7744C77.5598 29.8672 77.7288 29.986 77.879 30.1278C78.1876 30.4193 78.4028 30.7952 78.4977 31.2081C78.5767 31.5614 78.5648 31.9253 78.4676 32.2675C78.4868 32.1962 78.5024 32.1238 78.5143 32.0506C78.5833 31.6258 78.5246 31.1901 78.3459 30.7986L77.9221 30.992L78.3459 30.7986C78.1672 30.407 77.8765 30.0772 77.5105 29.8504C77.467 29.8235 77.4226 29.7981 77.3775 29.7744Z" fill="white" stroke="black"/>
<path d="M79.3215 39.4697C79.3516 39.5392 79.3781 39.6101 79.4007 39.6821C79.3517 39.5467 79.2893 39.4161 79.214 39.2922C79.03 38.9895 78.7751 38.7362 78.4713 38.5541C78.1674 38.3719 77.8238 38.2664 77.47 38.2464C77.1162 38.2265 76.7629 38.2928 76.4405 38.4396C76.1181 38.5865 75.8362 38.8095 75.6194 39.0895C75.4025 39.3695 75.2572 39.698 75.196 40.0468C75.1669 40.2127 75.1573 40.3808 75.167 40.5477C75.16 40.4863 75.1557 40.4244 75.1543 40.3622C75.15 40.0785 75.2017 39.7966 75.3065 39.5327C75.4114 39.2683 75.5676 39.027 75.7661 38.8226C75.9646 38.6183 76.2016 38.4548 76.4636 38.3417C76.7255 38.2286 77.0073 38.1681 77.2928 38.1636C77.5783 38.1591 77.8619 38.2108 78.1273 38.3156C78.3927 38.4204 78.6348 38.5763 78.8397 38.7744C79.0445 38.9724 79.2082 39.2087 79.3215 39.4697Z" fill="white" stroke="black"/>
<mask id="path-34-inside-12_61385:227" fill="white">
<path d="M73.6653 49.0833L73.9052 47.8867L76.4642 46.4467L74.2756 46.0268L74.465 45.0822L79.4694 46.0688L79.28 47.0135L77.2092 46.5936L78.9349 48.76L78.695 49.9523L76.7252 47.3577L73.6653 49.0833Z"/>
</mask>
<path d="M73.6653 49.0833L73.9052 47.8867L76.4642 46.4467L74.2756 46.0268L74.465 45.0822L79.4694 46.0688L79.28 47.0135L77.2092 46.5936L78.9349 48.76L78.695 49.9523L76.7252 47.3577L73.6653 49.0833Z" fill="white"/>
<path d="M73.6653 49.0833L72.6848 48.8867L72.2558 51.0261L74.1565 49.9543L73.6653 49.0833ZM73.9052 47.8867L73.4148 47.0152L73.0149 47.2403L72.9247 47.6901L73.9052 47.8867ZM76.4642 46.4467L76.9546 47.3182L79.3344 45.979L76.6526 45.4646L76.4642 46.4467ZM74.2756 46.0268L73.2951 45.8303L73.0969 46.819L74.0872 47.0089L74.2756 46.0268ZM74.465 45.0822L74.6584 44.1011L73.6804 43.9083L73.4845 44.8856L74.465 45.0822ZM79.4694 46.0688L80.4499 46.2654L80.6471 45.2818L79.6628 45.0877L79.4694 46.0688ZM79.28 47.0135L79.0813 47.9935L80.0635 48.1927L80.2605 47.21L79.28 47.0135ZM77.2092 46.5936L77.4079 45.6136L74.7152 45.0676L76.427 47.2167L77.2092 46.5936ZM78.9349 48.76L79.9152 48.9572L80.007 48.501L79.717 48.1369L78.9349 48.76ZM78.695 49.9523L77.8985 50.557L79.2382 52.3217L79.6753 50.1496L78.695 49.9523ZM76.7252 47.3577L77.5216 46.7531L76.994 46.0581L76.234 46.4867L76.7252 47.3577ZM74.6458 49.2799L74.8857 48.0833L72.9247 47.6901L72.6848 48.8867L74.6458 49.2799ZM74.3956 48.7582L76.9546 47.3182L75.9738 45.5752L73.4148 47.0152L74.3956 48.7582ZM76.6526 45.4646L74.464 45.0448L74.0872 47.0089L76.2758 47.4288L76.6526 45.4646ZM75.2561 46.2234L75.4455 45.2788L73.4845 44.8856L73.2951 45.8303L75.2561 46.2234ZM74.2716 46.0633L79.276 47.0499L79.6628 45.0877L74.6584 44.1011L74.2716 46.0633ZM78.4889 45.8723L78.2995 46.8169L80.2605 47.21L80.4499 46.2654L78.4889 45.8723ZM79.4787 46.0334L77.4079 45.6136L77.0105 47.5737L79.0813 47.9935L79.4787 46.0334ZM76.427 47.2167L78.1527 49.383L79.717 48.1369L77.9914 45.9706L76.427 47.2167ZM77.9545 48.5627L77.7146 49.7551L79.6753 50.1496L79.9152 48.9572L77.9545 48.5627ZM79.4914 49.3477L77.5216 46.7531L75.9287 47.9624L77.8985 50.557L79.4914 49.3477ZM76.234 46.4867L73.1741 48.2122L74.1565 49.9543L77.2164 48.2288L76.234 46.4867Z" fill="black" mask="url(#path-34-inside-12_61385:227)"/>
<mask id="path-36-inside-13_61385:227" fill="white">
<path d="M76.2115 54.3354L75.1972 53.9156L74.5111 55.595L73.6146 55.2297L74.2965 53.5504L73.2863 53.1305L72.4445 55.1331L71.5438 54.7679L72.7265 51.871L77.4532 53.7939L76.2662 56.6907L75.3697 56.3255L76.2115 54.3354Z"/>
</mask>
<path d="M76.2115 54.3354L75.1972 53.9156L74.5111 55.595L73.6146 55.2297L74.2965 53.5504L73.2863 53.1305L72.4445 55.1331L71.5438 54.7679L72.7265 51.871L77.4532 53.7939L76.2662 56.6907L75.3697 56.3255L76.2115 54.3354Z" fill="white"/>
<path d="M76.2115 54.3354L77.1325 54.725L77.5251 53.7969L76.594 53.4115L76.2115 54.3354ZM75.1972 53.9156L75.5796 52.9916L74.6514 52.6074L74.2714 53.5374L75.1972 53.9156ZM74.5111 55.595L74.1338 56.521L75.059 56.898L75.4369 55.9731L74.5111 55.595ZM73.6146 55.2297L72.6881 54.8535L72.3123 55.7789L73.2373 56.1558L73.6146 55.2297ZM74.2965 53.5504L75.223 53.9265L75.5961 53.0076L74.6803 52.6269L74.2965 53.5504ZM73.2863 53.1305L73.6701 52.2071L72.7504 51.8248L72.3645 52.743L73.2863 53.1305ZM72.4445 55.1331L72.0687 56.0598L72.9838 56.4309L73.3664 55.5206L72.4445 55.1331ZM71.5438 54.7679L70.618 54.3899L70.2391 55.3179L71.168 55.6946L71.5438 54.7679ZM72.7265 51.871L73.1034 50.9447L72.1782 50.5684L71.8007 51.493L72.7265 51.871ZM77.4532 53.7939L78.3785 54.173L78.7586 53.2453L77.83 52.8676L77.4532 53.7939ZM76.2662 56.6907L75.8889 57.6168L76.8132 57.9934L77.1916 57.0699L76.2662 56.6907ZM75.3697 56.3255L74.4487 55.9359L74.054 56.8692L74.9924 57.2516L75.3697 56.3255ZM76.594 53.4115L75.5796 52.9916L74.8147 54.8396L75.8291 55.2594L76.594 53.4115ZM74.2714 53.5374L73.5854 55.2168L75.4369 55.9731L76.1229 54.2938L74.2714 53.5374ZM74.8884 54.6689L73.9919 54.3036L73.2373 56.1558L74.1338 56.521L74.8884 54.6689ZM74.5412 55.6059L75.223 53.9265L73.3699 53.1742L72.6881 54.8535L74.5412 55.6059ZM74.6803 52.6269L73.6701 52.2071L72.9025 54.0539L73.9127 54.4738L74.6803 52.6269ZM72.3645 52.743L71.5227 54.7456L73.3664 55.5206L74.2082 53.518L72.3645 52.743ZM72.8203 54.2064L71.9196 53.8412L71.168 55.6946L72.0687 56.0598L72.8203 54.2064ZM72.4696 55.1459L73.6523 52.249L71.8007 51.493L70.618 54.3899L72.4696 55.1459ZM72.3497 52.7973L77.0763 54.7201L77.83 52.8676L73.1034 50.9447L72.3497 52.7973ZM76.5278 53.4147L75.3409 56.3116L77.1916 57.0699L78.3785 54.173L76.5278 53.4147ZM76.6435 55.7646L75.747 55.3994L74.9924 57.2516L75.8889 57.6168L76.6435 55.7646ZM76.2907 56.7151L77.1325 54.725L75.2905 53.9459L74.4487 55.9359L76.2907 56.7151Z" fill="black" mask="url(#path-36-inside-13_61385:227)"/>
<mask id="path-38-inside-14_61385:227" fill="white">
<path d="M72.4826 63.2696L71.6829 62.7322L72.4027 61.6196L68.9303 59.3861L69.4522 58.58L72.9246 60.8135L73.6485 59.701L74.465 60.2257L72.4826 63.2696Z"/>
</mask>
<path d="M72.4826 63.2696L71.6829 62.7322L72.4027 61.6196L68.9303 59.3861L69.4522 58.58L72.9246 60.8135L73.6485 59.701L74.465 60.2257L72.4826 63.2696Z" fill="white"/>
<path d="M72.4826 63.2696L71.9249 64.0996L72.7669 64.6654L73.3206 63.8153L72.4826 63.2696ZM71.6829 62.7322L70.8433 62.189L70.3096 63.0141L71.1252 63.5622L71.6829 62.7322ZM72.4027 61.6196L73.2423 62.1628L73.7869 61.321L72.9436 60.7786L72.4027 61.6196ZM68.9303 59.3861L68.0909 58.8426L67.5458 59.6845L68.3893 60.2271L68.9303 59.3861ZM69.4522 58.58L69.9932 57.739L69.1546 57.1996L68.6128 58.0365L69.4522 58.58ZM72.9246 60.8135L72.3836 61.6546L73.2202 62.1927L73.7627 61.3589L72.9246 60.8135ZM73.6485 59.701L74.1892 58.8597L73.3527 58.3221L72.8103 59.1556L73.6485 59.701ZM74.465 60.2257L75.303 60.7715L75.852 59.9285L75.0057 59.3845L74.465 60.2257ZM73.0404 62.4396L72.2407 61.9022L71.1252 63.5622L71.9249 64.0996L73.0404 62.4396ZM72.5226 63.2753L73.2423 62.1628L71.563 61.0765L70.8433 62.189L72.5226 63.2753ZM72.9436 60.7786L69.4713 58.545L68.3893 60.2271L71.8617 62.4606L72.9436 60.7786ZM69.7697 59.9296L70.2916 59.1235L68.6128 58.0365L68.0909 58.8426L69.7697 59.9296ZM68.9112 59.421L72.3836 61.6546L73.4655 59.9725L69.9932 57.739L68.9112 59.421ZM73.7627 61.3589L74.4867 60.2463L72.8103 59.1556L72.0864 60.2681L73.7627 61.3589ZM73.1078 60.5422L73.9244 61.067L75.0057 59.3845L74.1892 58.8597L73.1078 60.5422ZM73.6271 59.68L71.6447 62.7238L73.3206 63.8153L75.303 60.7715L73.6271 59.68Z" fill="black" mask="url(#path-38-inside-14_61385:227)"/>
<path d="M65.9199 66.6394C66.2088 66.5582 66.4989 66.3734 66.7764 66.1603C66.9915 65.9957 67.1813 65.8721 67.3484 65.7813C67.1852 65.8793 67.0187 66.0021 66.8544 66.1233L66.8427 66.1319C66.4067 66.4459 66.0664 66.6394 65.7765 66.6967C65.6148 66.7287 65.4564 66.7216 65.2831 66.629C65.4911 66.7048 65.713 66.6976 65.9199 66.6394ZM68.1774 65.594C68.0647 65.5675 67.9568 65.5664 67.8564 65.5808C67.8963 65.5723 67.9339 65.5666 67.9693 65.5631C68.1987 65.5407 68.3815 65.6103 68.5714 65.7925C68.5886 65.809 68.6054 65.8267 68.6216 65.8456C68.507 65.7364 68.3615 65.6374 68.1774 65.594Z" fill="white" stroke="black"/>
<mask id="path-41-inside-15_61385:227" fill="white">
<path d="M62.8022 71.6578L62.1709 70.7678L60.6935 71.809L60.1338 71.0197L61.6111 69.9785L60.9798 69.0884L59.2036 70.3479L58.6438 69.5544L61.207 67.7491L64.1533 71.9013L61.59 73.7108L61.0303 72.9173L62.8022 71.6578Z"/>
</mask>
<path d="M62.8022 71.6578L62.1709 70.7678L60.6935 71.809L60.1338 71.0197L61.6111 69.9785L60.9798 69.0884L59.2036 70.3479L58.6438 69.5544L61.207 67.7491L64.1533 71.9013L61.59 73.7108L61.0303 72.9173L62.8022 71.6578Z" fill="white"/>
<path d="M62.8022 71.6578L63.3816 72.4729L64.1958 71.8941L63.6179 71.0793L62.8022 71.6578ZM62.1709 70.7678L62.9865 70.1892L62.4097 69.376L61.5948 69.9504L62.1709 70.7678ZM60.6935 71.809L59.8779 72.3875L60.4546 73.2007L61.2696 72.6264L60.6935 71.809ZM60.1338 71.0197L59.5577 70.2023L58.7379 70.7801L59.3181 71.5982L60.1338 71.0197ZM61.6111 69.9785L62.1872 70.7959L63.0071 70.218L62.4267 69.3999L61.6111 69.9785ZM60.9798 69.0884L61.7954 68.5099L61.2169 67.6943L60.4013 68.2727L60.9798 69.0884ZM59.2036 70.3479L58.3865 70.9244L58.9643 71.7435L59.782 71.1637L59.2036 70.3479ZM58.6438 69.5544L58.068 68.7369L57.2498 69.3131L57.8267 70.1309L58.6438 69.5544ZM61.207 67.7491L62.0226 67.1705L61.4459 66.3578L60.6312 66.9316L61.207 67.7491ZM64.1533 71.9013L64.73 72.7183L65.5489 72.1402L64.9688 71.3227L64.1533 71.9013ZM61.59 73.7108L60.7729 74.2873L61.3496 75.1047L62.1668 74.5278L61.59 73.7108ZM61.0303 72.9173L60.4509 72.1023L59.6387 72.6796L60.2131 73.4938L61.0303 72.9173ZM63.6179 71.0793L62.9865 70.1892L61.3552 71.3463L61.9866 72.2364L63.6179 71.0793ZM61.5948 69.9504L60.1175 70.9916L61.2696 72.6264L62.747 71.5852L61.5948 69.9504ZM61.5092 71.2305L60.9494 70.4412L59.3181 71.5982L59.8779 72.3875L61.5092 71.2305ZM60.7098 71.8371L62.1872 70.7959L61.035 69.1611L59.5577 70.2023L60.7098 71.8371ZM62.4267 69.3999L61.7954 68.5099L60.1641 69.667L60.7955 70.557L62.4267 69.3999ZM60.4013 68.2727L58.6251 69.5322L59.782 71.1637L61.5582 69.9042L60.4013 68.2727ZM60.0207 69.7715L59.4609 68.978L57.8267 70.1309L58.3865 70.9244L60.0207 69.7715ZM59.2196 70.372L61.7829 68.5667L60.6312 66.9316L58.068 68.7369L59.2196 70.372ZM60.3915 68.3278L63.3377 72.48L64.9688 71.3227L62.0226 67.1705L60.3915 68.3278ZM63.5766 71.0844L61.0133 72.8939L62.1668 74.5278L64.73 72.7183L63.5766 71.0844ZM62.4072 73.1344L61.8474 72.3409L60.2131 73.4938L60.7729 74.2873L62.4072 73.1344ZM61.6096 73.7324L63.3816 72.4729L62.2229 70.8428L60.4509 72.1023L61.6096 73.7324Z" fill="black" mask="url(#path-41-inside-15_61385:227)"/>
<mask id="path-43-inside-16_61385:227" fill="white">
<path d="M53.353 73.3414L55.3102 72.4723L55.2597 71.4353L56.253 71.0155L56.4087 76.5196L55.609 76.8722L51.6232 73.0643L52.6123 72.6445L53.353 73.3414ZM54.0854 74.0761L55.4659 75.4532L55.3649 73.5093L54.0854 74.0761Z"/>
</mask>
<path d="M53.353 73.3414L55.3102 72.4723L55.2597 71.4353L56.253 71.0155L56.4087 76.5196L55.609 76.8722L51.6232 73.0643L52.6123 72.6445L53.353 73.3414ZM54.0854 74.0761L55.4659 75.4532L55.3649 73.5093L54.0854 74.0761Z" fill="white"/>
<path d="M53.353 73.3414L52.6678 74.0697L53.1517 74.525L53.7589 74.2554L53.353 73.3414ZM55.3102 72.4723L55.716 73.3863L56.3424 73.1082L56.309 72.4237L55.3102 72.4723ZM55.2597 71.4353L54.8704 70.5142L54.2269 70.7862L54.2609 71.484L55.2597 71.4353ZM56.253 71.0155L57.2526 70.9872L57.2112 69.5248L55.8637 70.0944L56.253 71.0155ZM56.4087 76.5196L56.8122 77.4346L57.4273 77.1633L57.4083 76.4913L56.4087 76.5196ZM55.609 76.8722L54.9182 77.5953L55.4013 78.0568L56.0125 77.7872L55.609 76.8722ZM51.6232 73.0643L51.2324 72.1438L49.8335 72.7376L50.9324 73.7874L51.6232 73.0643ZM52.6123 72.6445L53.2975 71.9161L52.8222 71.469L52.2215 71.724L52.6123 72.6445ZM54.0854 74.0761L53.6804 73.1618L52.3456 73.7531L53.3792 74.7841L54.0854 74.0761ZM55.4659 75.4532L54.7597 76.1612L56.5994 77.9963L56.4646 75.4013L55.4659 75.4532ZM55.3649 73.5093L56.3635 73.4574L56.2881 72.0066L54.9599 72.595L55.3649 73.5093ZM53.7589 74.2554L55.716 73.3863L54.9044 71.5584L52.9472 72.4275L53.7589 74.2554ZM56.309 72.4237L56.2585 71.3867L54.2609 71.484L54.3114 72.521L56.309 72.4237ZM55.649 72.3564L56.6423 71.9366L55.8637 70.0944L54.8704 70.5142L55.649 72.3564ZM55.2534 71.0438L55.4091 76.5479L57.4083 76.4913L57.2526 70.9872L55.2534 71.0438ZM56.0052 75.6046L55.2055 75.9573L56.0125 77.7872L56.8122 77.4346L56.0052 75.6046ZM56.2998 76.1492L52.314 72.3413L50.9324 73.7874L54.9182 77.5953L56.2998 76.1492ZM52.0139 73.9848L53.003 73.565L52.2215 71.724L51.2324 72.1438L52.0139 73.9848ZM51.927 73.3728L52.6678 74.0697L54.0383 72.6131L53.2975 71.9161L51.927 73.3728ZM53.3792 74.7841L54.7597 76.1612L56.1721 74.7452L54.7916 73.3681L53.3792 74.7841ZM56.4646 75.4013L56.3635 73.4574L54.3662 73.5612L54.4673 75.5051L56.4646 75.4013ZM54.9599 72.595L53.6804 73.1618L54.4904 74.9904L55.7699 74.4236L54.9599 72.595Z" fill="black" mask="url(#path-43-inside-16_61385:227)"/>
<mask id="path-45-inside-17_61385:227" fill="white">
<path d="M47.2964 79.4334L47.0691 78.4888L48.3612 78.1823L47.4058 74.1728L48.3444 73.9503L49.2998 77.9598L50.592 77.6533L50.8192 78.5937L47.2964 79.4334Z"/>
</mask>
<path d="M47.2964 79.4334L47.0691 78.4888L48.3612 78.1823L47.4058 74.1728L48.3444 73.9503L49.2998 77.9598L50.592 77.6533L50.8192 78.5937L47.2964 79.4334Z" fill="white"/>
<path d="M47.2964 79.4334L46.3241 79.6673L46.5576 80.6375L47.5282 80.4061L47.2964 79.4334ZM47.0691 78.4888L46.8383 77.5158L45.8621 77.7473L46.0968 78.7227L47.0691 78.4888ZM48.3612 78.1823L48.592 79.1553L49.566 78.9243L49.334 77.9505L48.3612 78.1823ZM47.4058 74.1728L47.1751 73.1998L46.201 73.4307L46.4331 74.4046L47.4058 74.1728ZM48.3444 73.9503L49.3172 73.7185L49.0856 72.7469L48.1137 72.9773L48.3444 73.9503ZM49.2998 77.9598L48.3271 78.1916L48.5586 79.1633L49.5306 78.9328L49.2998 77.9598ZM50.592 77.6533L51.564 77.4184L51.3301 76.4505L50.3612 76.6803L50.592 77.6533ZM50.8192 78.5937L51.0511 79.5665L52.0269 79.3339L51.7913 78.3588L50.8192 78.5937ZM48.2686 79.1995L48.0413 78.2548L46.0968 78.7227L46.3241 79.6673L48.2686 79.1995ZM47.2999 79.4618L48.592 79.1553L48.1305 77.2093L46.8383 77.5158L47.2999 79.4618ZM49.334 77.9505L48.3786 73.941L46.4331 74.4046L47.3885 78.4141L49.334 77.9505ZM47.6365 75.1459L48.5751 74.9233L48.1137 72.9773L47.1751 73.1998L47.6365 75.1459ZM47.3716 74.1821L48.3271 78.1916L50.2726 77.728L49.3172 73.7185L47.3716 74.1821ZM49.5306 78.9328L50.8228 78.6263L50.3612 76.6803L49.069 76.9868L49.5306 78.9328ZM49.6199 77.8882L49.8472 78.8286L51.7913 78.3588L51.564 77.4184L49.6199 77.8882ZM50.5874 77.621L47.0645 78.4606L47.5282 80.4061L51.0511 79.5665L50.5874 77.621Z" fill="black" mask="url(#path-45-inside-17_61385:227)"/>
</svg>
